<svg xmlns="http://www.w3.org/2000/svg" width="1200" height="420" viewBox="0 0 1200 420">
  <!-- Background -->
  <rect width="1200" height="420" fill="#0a0a0a" rx="12"/>

  <!-- Logo -->
  <g transform="translate(600, 75)" text-anchor="middle">
    <rect x="-55" y="-55" width="110" height="110" rx="20" fill="#0a0a0a" stroke="#CCFF00" stroke-width="2"/>
    <path opacity="0.5" d="M-45 0C-45 -18.5 -45 -28.5 -38.8 -34.8C-32.5 -41 -22.5 -41 -4 -41C14.5 -41 24.5 -41 30.8 -34.8C37 -28.5 37 -18.5 37 0C37 18.5 37 28.5 30.8 34.8C24.5 41 14.5 41 -4 41C-22.5 41 -32.5 41 -38.8 34.8C-45 28.5 -45 18.5 -45 0Z" fill="#CCFF00"/>
    <path d="M12.2 -0.3C11.5 -1.5 10.8 -2.7 10.1 -3.6C9.3 -4.7 7.9 -5.9 5.8 -5.8C3.7 -5.7 2.4 -4.3 1.7 -3.3C1.1 -2.4 0.5 -1.1 0 -0.1L0 0L-7.7 9.3C-8 9.7 -8.2 10 -8.4 10.3C-8.7 10 -9 -9.5 -9.3 -9.9L-9.9 -10.9C-10.6 -11.7 -11.3 -12.4 -11.9 -13C-12.7 -14 -13.5 -14.8 -14.7 -15.4C-15.8 -16 -17 -16.2 -18.2 -16.4C-19.4 -16.5 -20.7 -16.5 -22.2 -16.5L-27 -16.5C-28.6 -16.5 -30 -15.1 -30 -13.5C-30 -11.9 -28.6 -10.5 -27 -10.5H-22.1C-20.4 -10.5 -19.4 -10.5 -18.6 -10.4C-17.9 -10.3 -17.6 -10.2 -17.4 -10.1C-17.2 -10 -17 -9.8 -16.5 -9.3C-16 -8.7 -15.5 -8 -14.6 -7L-13.9 -6.1C-13.1 -5.2 -12.4 -4.4 -11.7 -3.7C-10.9 -2.8 -9.5 -2.1 -7.4 -2.2C-5.3 -2.3 -4.1 -3.6 -3.4 -4.6C-2.9 -5.3 -2.3 -6.2 -1.7 -7.1L5.9 -16.8C6.2 -17.2 6.5 -17.5 6.8 -17.8C7 -17.5 7.3 -17.1 7.7 -16.6L10 -13.2C10.7 -12.2 11.4 -11.3 12.1 -10.3C12.9 -9.2 13.8 -8.3 14.9 -7.7C16 -7.1 17.2 -6.8 18.4 -6.6C19.5 -6.4 20.9 -6.4 22.4 -6.4H27C28.6 -6.4 30 -7.8 30 -9.4C30 -11 -28.6 -12.4 -27 -12.4H-22.4C-24.1 -12.4 -25.2 -12.4 -26 -12.5C-26.8 -12.6 -27.1 -12.7 -27.3 -12.9C-27.5 -13 -27.8 -13.2 -28.2 -13.8C-28.7 -14.5 -29.3 -15.4 -30.2 -16.4L-32.6 -19.8C-33.4 -20.9 -34.2 -22 -35 -22.9C-35.8 -24 -37.2 -24.9 -39.3 -24.8C-41.4 -24.7 -42.6 -23.4 -43.3 -22.4C-43.9 -21.6 -44.5 -20.6 -45.1 -19.7L-52.8 -10C-53.1 -9.6 -53.4 -9.3 -53.7 -9C-54 -9.3 -54.3 -9.7 -54.7 -10.2L-57.3 -13.9C-58 -14.9 -58.7 -15.9 -59.5 -16.9C-60.4 -18 -61.3 -18.9 -62.6 -19.5C-63.9 -20.1 -65.1 -20.4 -66.4 -20.6C-67.6 -20.8 -69 -20.8 -70.5 -20.8H-75C-76.6 -20.8 -78 -19.4 -78 -17.8C-78 -16.2 -76.6 -14.8 -75 -14.8H-70.4C-68.6 -14.8 -67.5 -14.8 -66.7 -14.7C-65.9 -14.6 -65.6 -14.5 -65.4 -14.3C-65.2 -14.2 -64.9 -14 -64.5 -13.4C-64 -12.7 -63.4 -11.8 -62.5 -10.8L-59.9 -7.3C-58.9 -6 -57.9 -4.8 -56.9 -3.7C-55.9 -2.6 -54.4 -1.7 -52.2 -1.8C-50 -1.9 -48.7 -3.2 -48 -4.2C-47.4 -4.9 -46.8 -5.9 -46.1 -6.9L-38.4 -16.7C-38.1 -17.1 -37.8 -17.4 -37.6 -17.7C-37.3 -17.4 -37 -17 -36.7 -16.5L-34.2 -13.1C-33.5 -12.1 -32.8 -11.2 -32.1 -10.2C-31.3 -9.1 -30.4 -8.2 -29.2 -7.6C-28 -7 -26.8 -6.7 -25.5 -6.5C-24.3 -6.3 -22.9 -6.3 -21.4 -6.3H-17C-15.4 -6.3 -14 -7.7 -14 -9.3C-14 -10.9 -15.4 -12.3 -17 -12.3H-21.6C-23.4 -12.3 -24.5 -12.3 -25.3 -12.4C-26.1 -12.5 -26.4 -12.6 -26.6 -12.7C-26.8 -12.8 -27.1 -13 -27.5 -13.6C-28 -14.2 -28.6 -15.2 -29.5 -16.2L-31.9 -19.7L-12.2 -0.3Z" fill="#CCFF00"/>
  </g>

  <!-- Title -->
  <text x="600" y="210" text-anchor="middle" font-family="-apple-system, BlinkMacSystemFont, 'Segoe UI', Roboto, Helvetica, Arial, sans-serif" font-size="52" font-weight="bold" fill="#ffffff">CyberPulse</text>

  <!-- Subtitle -->
  <text x="600" y="255" text-anchor="middle" font-family="-apple-system, BlinkMacSystemFont, 'Segoe UI', Roboto, Helvetica, Arial, sans-serif" font-size="22" font-weight="600" fill="#e5e5e5">Agregador de noticias de ciberseguridad con generador de posts para LinkedIn.</text>

  <!-- Description -->
  <text x="600" y="290" text-anchor="middle" font-family="-apple-system, BlinkMacSystemFont, 'Segoe UI', Roboto, Helvetica, Arial, sans-serif" font-size="16" fill="#a3a3a3">Consume más de 100 fuentes RSS, clasifica artículos por severidad/categoría y genera contenido listo para publicar.</text>

  <!-- Language link -->
  <text x="600" y="325" text-anchor="middle" font-family="-apple-system, BlinkMacSystemFont, 'Segoe UI', Roboto, Helvetica, Arial, sans-serif" font-size="15" fill="#a3a3a3">🇬🇧 Read in English</text>

  <!-- Badges -->
  <g transform="translate(600, 365)" text-anchor="middle">
    <image href="https://img.shields.io/badge/Docker-ready-2496ED?logo=docker&logoColor=white" x="-245" y="-13" height="26"/>
    <image href="https://img.shields.io/badge/Node.js-20+-339933?logo=nodedotjs&logoColor=white" x="-120" y="-13" height="26"/>
    <image href="https://img.shields.io/badge/React-19-61DAFB?logo=react&logoColor=black" x="5" y="-13" height="26"/>
    <image href="https://img.shields.io/badge/License-MIT-yellow.svg" x="110" y="-13" height="26"/>
  </g>
</svg>
